<svg xmlns="http://www.w3.org/2000/svg" viewBox="0 0 79 79" id="leaderboard">
  <g id="Layer_2">
    <g id="Layer_1-2">
      <path fill="#ffece1" d="M71 36a32.93 32.93 0 0 1-33.1 33 33.32 33.32 0 0 1-10.4-1.7 8 8 0 0 0-4.8-3.4 7 7 0 0 0-2.9-.3A33.17 33.17 0 0 1 6.6 25.32c2.3-.5 3.9-1.8 3.8-3.3a2.79 2.79 0 0 0-1.4-2.1 33.06 33.06 0 0 1 58.7 1.7l-.2.2a5.55 5.55 0 0 0-.8 7.8 5.26 5.26 0 0 0 2.8 1.8c.3.1.5.1.8.2h.3c.2 1.5.3 3 .4 4.38z" style="fill:#ffece1"></path>
      <path fill="#6fbbc4" d="M70.4 36a32.5 32.5 0 0 1-32.5 32.5 32.09 32.09 0 0 1-10.2-1.7 7.5 7.5 0 0 0-4.7-3.3 6.72 6.72 0 0 0-2.8-.3h-.1a32.56 32.56 0 0 1-13-37.6c2.2-.5 3.8-1.8 3.7-3.3a2.47 2.47 0 0 0-1.4-2A32.55 32.55 0 0 1 67.2 22l-.2.2a5.41 5.41 0 0 0-.8 7.6 5.26 5.26 0 0 0 2.8 1.8c.3.1.5.1.8.2h.3a29.66 29.66 0 0 1 .3 4.2z" style="fill:#6fbbc4"></path>
      <ellipse cx="52.32" cy="57.93" rx="6" ry="4.6" style="fill:#d7f0ee" transform="rotate(-30.83 52.323 57.92)"></ellipse>
      <ellipse cx="52.61" cy="58.44" rx="6" ry="4.4" style="fill:#1b403d" transform="rotate(-30.83 52.607 58.447)"></ellipse>
      <ellipse cx="52.49" cy="58.1" rx="6" ry="4.4" style="fill:#1c5955" transform="rotate(-30.83 52.488 58.102)"></ellipse>
      <ellipse cx="51.89" cy="57.25" rx="5.2" ry="3.4" style="fill:#2a867f" transform="rotate(-30.83 51.883 57.253)"></ellipse>
      <path fill="#5b99a1" d="M69.8 31.82a2.35 2.35 0 0 1-.8-.2 5.45 5.45 0 0 1-3.8-6.7 5.26 5.26 0 0 1 1.8-2.8 33.16 33.16 0 0 0-16.4-16 62.07 62.07 0 0 1 7.1 29.8 68.64 68.64 0 0 1-2.1 16.9 4.06 4.06 0 0 1 2.3 1.6c0 .1.1.1.1.2l.1.1.1.1.1.1c1.3 2.2.1 5.3-2.8 7a7.71 7.71 0 0 1-3.6 1.2c-.5.9-.8 1.7-1.3 2.5a32.3 32.3 0 0 0 19.2-33.8z" style="fill:#5b99a1"></path>
      <ellipse cx="24.16" cy="17" rx="3.3" ry="2.5" style="fill:#d7f0ee" transform="rotate(-32.21 24.15 17.01)"></ellipse>
      <ellipse cx="23.96" cy="16.71" rx="3.3" ry="2.4" style="fill:#1b403d" transform="rotate(-32.21 23.955 16.71)"></ellipse>
      <ellipse cx="24.08" cy="16.91" rx="3.3" ry="2.4" style="fill:#1c5955" transform="rotate(-32.21 24.083 16.915)"></ellipse>
      <ellipse cx="24.39" cy="17.4" rx="2.9" ry="1.8" style="fill:#2a867f" transform="rotate(-32.21 24.393 17.4)"></ellipse>
      <ellipse cx="14.46" cy="48.63" rx="3.5" ry="7.2" style="fill:#d7f0ee" transform="rotate(-37.86 14.46 48.626)"></ellipse>
      <ellipse cx="14.09" cy="48.94" rx="3.3" ry="7.2" style="fill:#1b403d" transform="rotate(-37.86 14.092 48.94)"></ellipse>
      <ellipse cx="14.25" cy="48.75" rx="3.3" ry="7.2" style="fill:#1c5955" transform="rotate(-37.86 14.254 48.751)"></ellipse>
      <ellipse cx="14.9" cy="48.34" rx="2.5" ry="6.3" style="fill:#2a867f" transform="rotate(-37.86 14.901 48.338)"></ellipse>
      <path d="M51.2 33.32h-7.5v-11a2 2 0 0 0-1.6-2.1h-8.6a2 2 0 0 0-1.6 2.1v8.2h-7.6a2 2 0 0 0-1.6 2.1v14.1a2 2 0 0 0 1.6 2.1h8.6a.64.64 0 0 1 .6 0h8.6a.45.45 0 0 1 .5 0h8.6a2 2 0 0 0 1.6-2.1v-11.3a2 2 0 0 0-1.6-2.1z" style="fill:#fff"></path>
      <path d="M51.2 34.42h-7.5v-11.3c0-1.2-.7-2.1-1.6-2.1h-8.6c-.9 0-1.6 1-1.6 2.1v8.4h-7.6c-.9 0-1.6 1-1.6 2.1V48c0 1.2.7 2.1 1.6 2.1h8.6a.64.64 0 0 1 .6 0h8.6a.45.45 0 0 1 .5 0h8.6c.9 0 1.6-1 1.6-2.1V36.52c0-1.1-.7-2.1-1.6-2.1z" style="fill:#1b403d"></path>
      <path d="M51.2 34h-7.5V22.72c0-1.2-.7-2.1-1.6-2.1h-8.6c-.9 0-1.6 1-1.6 2.1v8.4h-7.6c-.9 0-1.6 1-1.6 2.1v14.4c0 1.2.7 2.1 1.6 2.1h8.6a.64.64 0 0 1 .6 0h8.6a.45.45 0 0 1 .5 0h8.6c.9 0 1.6-1 1.6-2.1v-11.5c0-1.2-.7-2.12-1.6-2.12z" style="fill:#1c5955"></path>
      <path d="M51.3 33.52h-7.5v-10.9a1.81 1.81 0 0 0-1.6-2h-8.5a1.86 1.86 0 0 0-1.6 2v8.1h-7.5a1.86 1.86 0 0 0-1.6 2v13.9a1.81 1.81 0 0 0 1.6 2h8.5a.64.64 0 0 1 .6 0h8.5a.45.45 0 0 1 .5 0h8.5a1.86 1.86 0 0 0 1.6-2v-11.1a1.94 1.94 0 0 0-1.5-2z" style="fill:#2a867f"></path>
      <path d="M36.45 23h3.3v15.1h-3.3z" style="fill:#fff"></path>
      <path d="M36.3 23.12h3.3v15.1h-3.3z" style="fill:#1b403d"></path>
      <path d="M45.47 43.35a.94.94 0 0 0 .8.3 1 1 0 0 0 .9-1 .92.92 0 0 0-.9-1c-.6 0-.7.3-.7.3l-1.2-1.3 1.3-1.9H44v-1.8h5l-2.1 3a2.75 2.75 0 0 1 2 2.7 2.66 2.66 0 0 1-2.6 2.7 3.06 3.06 0 0 1-2-.8z" style="fill:#fff"></path>
      <path d="M45.4 43.42a.94.94 0 0 0 .8.3 1 1 0 0 0 .9-1 .92.92 0 0 0-.9-1c-.6 0-.7.3-.7.3l-1.2-1.3 1.3-1.9h-1.7V37h5l-2.1 3a2.75 2.75 0 0 1 2 2.7 2.66 2.66 0 0 1-2.6 2.7 3.06 3.06 0 0 1-2-.8z" style="fill:#1b403d"></path>
      <path d="M30.48 39.14a1.85 1.85 0 0 0 .5-1.2 1.32 1.32 0 0 0-1.3-1.3 1.35 1.35 0 0 0-1.3 1.4H26a3.73 3.73 0 0 1 3.8-3.8 3.86 3.86 0 0 1 3.7 3.9 3.76 3.76 0 0 1-.7 2.1l-2.2 3.1h3.2v2.5H26z" style="fill:#fff"></path>
      <path d="M30.4 39.22a1.85 1.85 0 0 0 .5-1.2 1.32 1.32 0 0 0-1.3-1.3 1.35 1.35 0 0 0-1.3 1.4h-2.4a3.73 3.73 0 0 1 3.8-3.8 3.86 3.86 0 0 1 3.7 3.9 3.76 3.76 0 0 1-.7 2.1l-2.2 3.1h3.2v2.5h-7.8z" style="fill:#1b403d"></path>
      <path d="M30.1 39.22a1.85 1.85 0 0 0 .5-1.2 1.32 1.32 0 0 0-1.3-1.3 1.35 1.35 0 0 0-1.3 1.4h-2.4a3.73 3.73 0 0 1 3.8-3.8 3.86 3.86 0 0 1 3.7 3.9 3.76 3.76 0 0 1-.7 2.1l-2.2 3.1h3.2v2.5h-7.8z" style="fill:#1b403d"></path>
      <path fill="#15302d" d="M29.6 34.32h-.1a3.8 3.8 0 0 1 3.5 3.8 3.76 3.76 0 0 1-.7 2.1l-1.6 2.7-.3.5 2.2-3.1a3.76 3.76 0 0 0 .7-2.1 3.8 3.8 0 0 0-3.7-3.9z" style="fill:#15302d"></path>
    </g>
  </g>
</svg>
